<?xml version="1.0" encoding="UTF-8"?>
<svg width="37px" height="22px" viewBox="0 0 37 22" version="1.1" xmlns="http://www.w3.org/2000/svg" xmlns:xlink="http://www.w3.org/1999/xlink">
    <!-- Generator: Sketch 53 (72520) - https://sketchapp.com -->
    <title>DEFIPULSE</title>
    <desc>Created with Sketch.</desc>
    <g id="edits" stroke="none" stroke-width="1" fill="none" fill-rule="evenodd">
        <g id="Desktop" transform="translate(-173.000000, -337.000000)" fill="#2E1A4E" fill-rule="nonzero">
            <g id="Group-4" transform="translate(161.000000, 327.000000)">
                <g id="Group-5" transform="translate(0.316406, 0.664907)">
                    <path d="M23.9998029,12.1432487 C24.8106129,12.9540586 25.1835855,13.8621658 25.1835855,15.0297322 C25.1835855,17.3000002 23.5349385,18.878377 21.1727787,18.878377 L18.8592675,18.878377 L17.5133229,17.5324324 L17.5133229,9.85676447 L19.8700773,9.85676447 C21.1349409,9.85676447 22.1998047,10.3108181 22.9241283,11.0729795 L23.9998029,12.1432487 Z M18.7889973,11.0675741 L18.7727811,11.0675741 L18.7727811,11.3378441 L19.9241313,12.4783834 L19.9241313,12.2027081 L18.7889973,11.0675741 Z M20.1187257,12.1648703 L19.0214295,11.0675741 L18.8646729,11.0675741 L19.9619691,12.1648703 L20.1187257,12.1648703 Z M20.5025091,12.1648703 L19.4052129,11.0675741 L19.0971051,11.0675741 L20.1944013,12.1648703 L20.5025091,12.1648703 Z M19.8862935,11.0675741 L19.4808885,11.0675741 L20.5781847,12.1648703 L20.9835897,12.1648703 L19.8862935,11.0675741 Z M21.3781839,12.1702757 L20.3025093,11.0946011 C20.1889959,11.0783849 20.0808879,11.0729795 19.9619691,11.0675741 L21.0592653,12.1648703 L21.1727787,12.1648703 C21.2430489,12.1648703 21.3133191,12.1648703 21.3781839,12.1702757 Z M21.7241295,12.2081135 L20.6754819,11.1594659 C20.5835901,11.1378443 20.4862929,11.1216281 20.3889957,11.1054119 L21.4592649,12.1756811 C21.5511567,12.1810865 21.6430485,12.1973027 21.7241295,12.2081135 Z M22.0376427,12.283789 L21.0160221,11.2621685 C20.9403465,11.2351415 20.8592655,11.2081145 20.7781845,11.1864929 L21.8214267,12.2297351 C21.8971023,12.2459513 21.9673725,12.2621675 22.0376427,12.283789 Z M22.1565615,12.3216268 C22.2268317,12.3540592 22.3025073,12.3864916 22.3673721,12.418924 L21.3727785,11.4243305 C21.3025083,11.3864927 21.2268327,11.3486549 21.1511571,11.3162225 L22.1565615,12.3216268 Z M18.7727811,13.472977 L18.9673755,13.6675714 L18.9241323,13.7108146 L18.7727811,13.5594634 L18.7727811,16.391893 L19.9241313,16.391893 L19.9241313,12.554059 L18.7727811,11.4243305 L18.7727811,11.6891951 L19.8646719,12.7756804 L19.8214287,12.8135182 L18.7727811,11.7702761 L18.7727811,12.0405461 L19.6808883,12.9540586 L19.6430505,12.9973018 L18.7727811,12.1216271 L18.7727811,12.3973024 L19.5025101,13.1324368 L19.4646723,13.17568 L18.7727811,12.4783834 L18.7727811,12.7540588 L19.3241319,13.310815 L19.2862941,13.3540582 L18.7727811,12.8351398 L18.7727811,13.1162206 L19.1457537,13.4891932 L19.1025105,13.5324364 L18.7727811,13.1973016 L18.7727811,13.472977 Z M22.2808857,12.2567621 C22.0971021,11.9702759 21.8538591,11.7270329 21.5619675,11.5378439 L22.2808857,12.2567621 Z M23.8916949,12.2513567 L23.4538575,11.8027085 C23.7457491,12.3486538 23.9349381,13.0243288 23.9349381,13.7270308 C23.9349381,13.8027064 23.9349381,13.878382 23.9295327,13.9486522 L25.0322343,15.0567592 L25.0322343,15.0297322 C25.0322343,13.9000036 24.6646671,13.0459504 23.8916949,12.2513567 Z M20.0754825,16.3864876 C21.6484539,16.3000012 22.6646691,15.2675698 22.6646691,13.7270308 C22.6646691,13.3270312 22.5943989,12.959464 22.4646693,12.63514 C22.1349399,12.4081132 21.7565619,12.3162214 21.1727787,12.3162214 L20.0754825,12.3162214 L20.0754825,16.3864876 Z M23.7025059,15.1162186 L24.8484507,16.2621634 C24.9565587,15.9108124 25.0214235,15.5324344 25.0322343,15.1324348 L23.9241273,14.0243278 C23.8971003,14.4135166 23.8214247,14.7756784 23.7025059,15.1162186 Z M24.8268291,16.3162174 L23.6808843,15.1702726 C23.5781817,15.4405426 23.4484521,15.6945964 23.2916955,15.9216232 L24.4592619,17.0891896 C24.6106131,16.851352 24.7349373,16.5918928 24.8268291,16.3162174 Z M23.9835867,17.6729728 C24.1511541,17.5108108 24.2970999,17.3270272 24.4268295,17.1324328 L23.2646685,15.9702718 C23.1295335,16.1594608 22.9781823,16.337839 22.8052095,16.4945956 L23.9835867,17.6729728 Z M22.2916965,16.9000006 L23.4754791,18.0837832 C23.6430465,17.9702698 23.7998031,17.8459456 23.9457489,17.7108106 L22.7673717,16.5324334 C22.6214259,16.6675684 22.4646693,16.7918926 22.2916965,16.9000006 Z M21.7727781,17.1864868 L22.9565607,18.3702694 C23.1187227,18.2945938 23.2754793,18.2081074 23.4268305,18.1162156 L22.2430479,16.932433 C22.0971021,17.0297302 21.9403455,17.1108112 21.7727781,17.1864868 Z M21.2646705,17.3756758 L22.4430477,18.554053 C22.5998043,18.5108098 22.7565609,18.4513504 22.9025067,18.391891 L21.7187241,17.2081084 C21.5727783,17.2729732 21.4214271,17.3324326 21.2646705,17.3756758 Z M20.7727791,17.4945946 L21.9457509,18.6675664 C22.0971021,18.6405394 22.2430479,18.608107 22.3835883,18.5702692 L21.2106165,17.3972974 C21.0700761,17.4351352 20.9241303,17.4675676 20.7727791,17.4945946 Z M20.7025089,17.5054054 C20.5727793,17.5324324 20.4376443,17.5486486 20.3025093,17.5594594 L21.4646703,18.716215 C21.6052107,18.7108096 21.7403457,18.6945934 21.8754807,18.6783772 L20.7025089,17.5054054 Z M21.0160221,18.7270258 L21.1727787,18.7270258 C21.2484543,18.7270258 21.3187245,18.7270258 21.3889947,18.7216204 L20.2322391,17.5648648 C20.1133203,17.5702702 19.9944015,17.5756756 19.8700773,17.5756756 L19.8646719,17.5756756 L21.0160221,18.7270258 Z M17.7727821,17.5756756 L18.9241323,18.7270258 L18.9998079,18.7270258 L17.8538631,17.5756756 L17.7727821,17.5756756 Z M17.9295387,17.5756756 L19.0808889,18.7270258 L19.1781861,18.7270258 L18.0268359,17.5756756 L17.9295387,17.5756756 Z M18.1025115,17.5756756 L19.2538617,18.7270258 L19.3781859,18.7270258 L18.2268357,17.5756756 L18.1025115,17.5756756 Z M18.3025113,17.5756756 L19.4538615,18.7270258 L19.6106181,18.7270258 L18.4592679,17.5756756 L18.3025113,17.5756756 Z M18.5349435,17.5756756 L19.6862937,18.7270258 L19.8754827,18.7270258 L18.7241325,17.5756756 L18.5349435,17.5756756 Z M18.7998081,17.5756756 L19.9511583,18.7270258 L20.1781851,18.7270258 L19.0268349,17.5756756 L18.7998081,17.5756756 Z M19.1079159,17.5756756 L20.2592661,18.7270258 L20.5349415,18.7270258 L19.3835913,17.5756756 L19.1079159,17.5756756 Z M19.4592669,17.5756756 L20.6106171,18.7270258 L20.9403465,18.7270258 L19.7835909,17.5756756 L19.4592669,17.5756756 Z M31.1349393,16.4027038 L32.4808839,17.7486484 L32.4808839,18.878377 L27.2808891,18.878377 L25.9349446,17.5324324 L25.9349446,9.85676447 L30.9781827,9.85676447 L32.3241273,11.2027091 L32.3241273,12.2675728 L28.4916987,12.2675728 L28.4862933,13.040545 L30.3619671,13.040545 L31.7079117,14.3864896 L31.7079117,15.472975 L28.4862933,15.472975 L28.4862933,16.4027038 L31.1349393,16.4027038 Z M32.1727761,11.2675739 L31.0214259,10.1162237 L31.0214259,11.0189255 L32.1727761,12.1162217 L32.1727761,11.2675739 Z M28.4484555,12.1162217 L27.3025107,11.0189255 L27.2214297,11.0189255 L28.3673745,12.1162217 L28.4484555,12.1162217 Z M28.6646715,12.1162217 L27.5133213,11.0189255 L27.3835917,11.0189255 L28.5295365,12.1162217 L28.6646715,12.1162217 Z M28.9349415,12.1162217 L27.7835913,11.0189255 L27.5944023,11.0189255 L28.7457525,12.1162217 L28.9349415,12.1162217 Z M29.2592655,12.1162217 L28.1133207,11.0189255 L27.8646723,11.0189255 L29.0160225,12.1162217 L29.2592655,12.1162217 Z M29.6916975,12.1162217 L28.5349419,11.0189255 L28.1944017,11.0189255 L29.3403465,12.1162217 L29.6916975,12.1162217 Z M30.1241295,12.1162217 L28.9673739,11.0189255 L28.6214283,11.0189255 L29.7727785,12.1162217 L30.1241295,12.1162217 Z M30.5727777,12.1162217 L29.4214275,11.0189255 L29.0538603,11.0189255 L30.2052105,12.1162217 L30.5727777,12.1162217 Z M31.0052097,12.1162217 L29.8646703,11.0189255 L29.5025085,11.0189255 L30.6538587,12.1162217 L31.0052097,12.1162217 Z M31.3835877,12.1162217 L30.2376429,11.0189255 L29.9403459,11.0189255 L31.0916961,12.1162217 L31.3835877,12.1162217 Z M31.7079117,12.1162217 L30.5619669,11.0189255 L30.3133185,11.0189255 L31.4700741,12.1162217 L31.7079117,12.1162217 Z M31.9241277,12.1162217 L30.7835883,11.0189255 L30.6376425,11.0189255 L31.7943981,12.1162217 L31.9241277,12.1162217 Z M32.0862897,12.1162217 L30.9457503,11.0189255 L30.8592639,11.0189255 L32.0106141,12.1162217 L32.0862897,12.1162217 Z M27.1835919,12.5973022 L27.4484565,12.851356 L27.4052133,12.8891938 L27.1835919,12.6783832 L27.1835919,13.040545 L28.3349421,13.040545 L28.3349421,12.1594649 L27.1835919,11.0621687 L27.1835919,11.2891955 L28.1835909,12.2459513 L28.1349423,12.2783836 L27.1835919,11.3702765 L27.1835919,11.6189249 L27.9998073,12.3973024 L27.9511587,12.4351402 L27.1835919,11.6946005 L27.1835919,11.9432489 L27.8160237,12.5486536 L27.7673751,12.5864914 L27.1835919,12.0243299 L27.1835919,12.2729782 L27.6322401,12.7000048 L27.5889969,12.7378426 L27.1835919,12.3486538 L27.1835919,12.5973022 Z M30.4052103,13.3000042 L30.4052103,14.2243276 L30.3998049,14.2243276 L31.5565605,15.3216238 L31.5565605,14.4513544 L30.4052103,13.3000042 Z M28.3727799,15.3216238 L28.4700771,15.3216238 L27.3187269,14.2243276 L27.2214297,14.2243276 L28.3727799,15.3216238 Z M27.3998079,14.2243276 L28.5511581,15.3216238 L28.7403471,15.3216238 L27.5944023,14.2243276 L27.3998079,14.2243276 Z M27.6754833,14.2243276 L28.8214281,15.3216238 L29.1187251,15.3216238 L27.9619695,14.2243276 L27.6754833,14.2243276 Z M28.0484559,14.2243276 L29.1998061,15.3216238 L29.6052111,15.3216238 L28.4592663,14.2243276 L28.0484559,14.2243276 Z M30.1241295,15.3216238 L28.9835901,14.2243276 L28.5403473,14.2243276 L29.6862921,15.3216238 L30.1241295,15.3216238 Z M30.6430479,15.3216238 L29.4916977,14.2243276 L29.0592657,14.2243276 L30.2106159,15.3216238 L30.6430479,15.3216238 Z M31.0160205,15.3216238 L29.8754811,14.2243276 L29.5727787,14.2243276 L30.7241289,15.3216238 L31.0160205,15.3216238 Z M31.2862905,15.3216238 L30.1403457,14.2243276 L29.9511567,14.2243276 L31.1025069,15.3216238 L31.2862905,15.3216238 Z M30.2160213,14.2243276 L31.3727769,15.3216238 L31.4700741,15.3216238 L30.3241293,14.2243276 L30.2160213,14.2243276 Z M27.1835919,16.1432446 L27.3241323,16.2783796 L27.2808891,16.3216228 L27.1835919,16.229731 L27.1835919,16.4027038 L28.3349421,16.4027038 L28.3349421,15.3594616 L27.1835919,14.2621654 L27.1835919,14.500003 L28.1835909,15.4621642 L28.1457531,15.500002 L27.1835919,14.581084 L27.1835919,14.8351378 L28.0160235,15.6297316 L27.9727803,15.6675694 L27.1835919,14.9108134 L27.1835919,15.1594618 L27.8430507,15.7918936 L27.7998075,15.8297314 L27.1835919,15.2405428 L27.1835919,15.4891912 L27.6700779,15.9540556 L27.6268347,15.9918934 L27.1835919,15.5702722 L27.1835919,15.8189206 L27.4971051,16.1162176 L27.4538619,16.1540554 L27.1835919,15.8945962 L27.1835919,16.1432446 Z M31.1781825,16.662163 L31.1781825,17.5756756 L32.3295327,18.7270258 L32.3295327,17.8135132 L31.1781825,16.662163 Z M26.7187276,17.5756756 L26.1944038,17.5756756 L27.3457539,18.7270258 L27.8700777,18.7270258 L26.7187276,17.5756756 Z M27.2646729,17.5756756 L26.7944032,17.5756756 L27.9457533,18.7270258 L28.4214285,18.7270258 L27.2646729,17.5756756 Z M27.3403485,17.5756756 L28.4971041,18.7270258 L28.9187253,18.7270258 L27.7619697,17.5756756 L27.3403485,17.5756756 Z M27.8376453,17.5756756 L28.9944009,18.7270258 L29.3673735,18.7270258 L28.2160233,17.5756756 L27.8376453,17.5756756 Z M28.6214283,17.5756756 L28.2916989,17.5756756 L29.4430491,18.7270258 L29.7781839,18.7270258 L28.6214283,17.5756756 Z M30.1457511,18.7270258 L28.9944009,17.5756756 L28.6971039,17.5756756 L29.8538595,18.7270258 L30.1457511,18.7270258 Z M29.0700765,17.5756756 L30.2214267,18.7270258 L30.4808859,18.7270258 L29.3295357,17.5756756 L29.0700765,17.5756756 Z M29.4052113,17.5756756 L30.5565615,18.7270258 L30.7889937,18.7270258 L29.6322381,17.5756756 L29.4052113,17.5756756 Z M29.7079137,17.5756756 L30.8646693,18.7270258 L31.0646691,18.7270258 L29.9079135,17.5756756 L29.7079137,17.5756756 Z M29.9835891,17.5756756 L31.1403447,18.7270258 L31.3133175,18.7270258 L30.1565619,17.5756756 L29.9835891,17.5756756 Z M30.2322375,17.5756756 L31.3889931,18.7270258 L31.5403443,18.7270258 L30.3835887,17.5756756 L30.2322375,17.5756756 Z M30.4592643,17.5756756 L31.6160199,18.7270258 L31.7457495,18.7270258 L30.5889939,17.5756756 L30.4592643,17.5756756 Z M30.6646695,17.5756756 L31.8214251,18.7270258 L31.9295331,18.7270258 L30.7781829,17.5756756 L30.6646695,17.5756756 Z M30.8538585,17.5756756 L32.0052087,18.7270258 L32.1025059,18.7270258 L30.9457503,17.5756756 L30.8538585,17.5756756 Z M31.0214259,17.5756756 L32.1781815,18.7270258 L32.2538571,18.7270258 L31.0971015,17.5756756 L31.0214259,17.5756756 Z M39.6971001,12.310816 L35.7133204,12.310816 L35.7133204,13.3000042 L37.680886,13.3000042 L39.0268305,14.6459488 L39.0268305,15.7486504 L35.7133204,15.7486504 L35.7133204,18.878377 L34.5133216,18.878377 L33.167377,17.5324324 L33.167377,9.85676447 L38.3511555,9.85676447 L39.6971001,11.2027091 L39.6971001,12.310816 Z M38.3943987,10.1162237 L38.3943987,11.0621687 L39.5403435,12.1594649 L39.5457489,12.1594649 L39.5457489,11.2675739 L38.3943987,10.1162237 Z M35.5944016,12.1594649 L35.680888,12.1594649 L34.5295378,11.0621687 L34.4538622,11.0621687 L35.5944016,12.1594649 Z M35.8916986,12.1594649 L34.734943,11.0621687 L34.6160242,11.0621687 L35.7565636,12.1594649 L35.8916986,12.1594649 Z M36.167374,12.1594649 L35.0106184,11.0621687 L34.8214294,11.0621687 L35.9673742,12.1594649 L36.167374,12.1594649 Z M36.518725,12.1594649 L35.3673748,11.0621687 L35.0971048,11.0621687 L36.2430496,12.1594649 L36.518725,12.1594649 Z M37.005211,12.1594649 L35.8538608,11.0621687 L35.4538612,11.0621687 L36.5944006,12.1594649 L37.005211,12.1594649 Z M37.4700754,12.1594649 L36.3187252,11.0621687 L35.9349418,11.0621687 L37.086292,12.1594649 L37.4700754,12.1594649 Z M37.9781829,12.1594649 L36.8268328,11.0621687 L36.3998062,11.0621687 L37.5511564,12.1594649 L37.9781829,12.1594649 Z M38.4592635,12.1594649 L37.3133188,11.0621687 L36.9025084,11.0621687 L38.0592639,12.1594649 L38.4592635,12.1594649 Z M38.8160199,12.1594649 L37.6646698,11.0621687 L37.3943998,11.0621687 L38.5403445,12.1594649 L38.8160199,12.1594649 Z M39.0916953,12.1594649 L37.9403451,11.0621687 L37.7457507,11.0621687 L38.8971009,12.1594649 L39.0916953,12.1594649 Z M39.2971005,12.1594649 L38.1511557,11.0621687 L38.0214261,11.0621687 L39.1727763,12.1594649 L39.2971005,12.1594649 Z M38.2322367,11.0621687 L39.3781815,12.1594649 L39.4592625,12.1594649 L38.3133177,11.0621687 L38.2322367,11.0621687 Z M34.410619,13.3000042 L35.5619692,13.3000042 L35.5619692,12.2027081 L34.410619,11.1000065 L34.410619,11.2837901 L35.437645,12.2729782 L35.3998072,12.310816 L34.410619,11.3648711 L34.410619,11.6135195 L35.2700776,12.4405456 L35.2268344,12.4837888 L34.410619,11.6946005 L34.410619,11.9432489 L35.1025102,12.608113 L35.059267,12.6513562 L34.410619,12.0243299 L34.410619,12.2729782 L34.9349428,12.7756804 L34.897105,12.8135182 L34.410619,12.3486538 L34.410619,12.6027076 L34.7673754,12.9432478 L34.7295376,12.9810856 L34.410619,12.6783832 L34.410619,12.9270316 L34.599808,13.1108152 L34.5619702,13.148653 L34.410619,13.0027072 L34.410619,13.3000042 Z M37.7241292,13.5594634 L37.7241292,14.500003 L38.8754793,15.5972992 L38.8754793,14.7108136 L37.7241292,13.5594634 Z M34.4430514,14.500003 L35.5889962,15.5972992 L35.6971042,15.5972992 L34.545754,14.500003 L34.4430514,14.500003 Z M34.626835,14.500003 L35.7727798,15.5972992 L35.9565634,15.5972992 L34.8106186,14.500003 L34.626835,14.500003 Z M34.8916996,14.500003 L36.032239,15.5972992 L36.3727792,15.5972992 L35.2160236,14.500003 L34.8916996,14.500003 Z M35.2971046,14.500003 L36.4484548,15.5972992 L36.870076,15.5972992 L35.7241312,14.500003 L35.2971046,14.500003 Z M35.8052122,14.500003 L36.9457516,15.5972992 L37.4322376,15.5972992 L36.2916982,14.500003 L35.8052122,14.500003 Z M36.3673738,14.500003 L37.5133186,15.5972992 L37.9403451,15.5972992 L36.788995,14.500003 L36.3673738,14.500003 Z M36.8646706,14.500003 L38.0214261,15.5972992 L38.3457501,15.5972992 L37.2052108,14.500003 L36.8646706,14.500003 Z M37.2808864,14.500003 L38.4268311,15.5972992 L38.6106147,15.5972992 L37.46467,14.500003 L37.2808864,14.500003 Z M37.5403456,14.500003 L38.6916957,15.5972992 L38.7943983,15.5972992 L37.6484536,14.500003 L37.5403456,14.500003 Z M34.410619,17.5756756 L35.5619692,18.7270258 L35.5619692,15.6243262 L35.5511584,15.635137 L34.410619,14.5486516 L34.410619,14.7270298 L35.4430504,15.7216234 L35.4052126,15.7594612 L34.410619,14.8081108 L34.410619,15.0567592 L35.275483,15.8891908 L35.2322398,15.932434 L34.410619,15.1378402 L34.410619,15.3864886 L35.1079156,16.0567582 L35.0646724,16.1000014 L34.410619,15.4675696 L34.410619,15.716218 L34.9403482,16.2243256 L34.9025104,16.2621634 L34.410619,15.7918936 L34.410619,16.0459474 L34.7727808,16.391893 L34.734943,16.4297308 L34.410619,16.121623 L34.410619,16.3756768 L34.6052134,16.5594604 L34.5673756,16.5972982 L34.410619,16.445947 L34.410619,17.5756756 Z M33.4268362,17.5756756 L34.5781864,18.7270258 L34.7998078,18.7270258 L33.653863,17.5756756 L33.4268362,17.5756756 Z M33.924133,17.5756756 L33.7295386,17.5756756 L34.8808888,18.7270258 L35.0754832,18.7270258 L33.924133,17.5756756 Z M33.9998086,17.5756756 L35.1565642,18.7270258 L35.2971046,18.7270258 L34.1511598,17.5756756 L33.9998086,17.5756756 Z M34.2268354,17.5756756 L35.3781856,18.7270258 L35.4808882,18.7270258 L34.3349434,17.5756756 L34.2268354,17.5756756 Z M41.5025109,9.85676447 L42.8484555,11.2027091 L42.8484555,18.878377 L41.6268351,18.878377 L40.2808905,17.5324324 L40.2808905,9.85676447 L41.5025109,9.85676447 Z M41.5457541,10.2027101 L42.6971043,11.3540603 L42.6971043,11.2675739 L41.5457541,10.1162237 L41.5457541,10.2027101 Z M41.5457541,10.4351423 L42.6971043,11.5864925 L42.6971043,11.4351413 L41.5457541,10.2837911 L41.5457541,10.4351423 Z M41.5457541,10.7540609 L42.6971043,11.9054111 L42.6971043,11.6621681 L41.5457541,10.5108179 L41.5457541,10.7540609 Z M41.5457541,11.2027091 L42.6971043,12.3540592 L42.6971043,11.9864921 L41.5457541,10.8351419 L41.5457541,11.2027091 Z M41.5457541,11.8135193 L42.6971043,12.9648694 L42.6971043,12.4297348 L41.5457541,11.2783847 L41.5457541,11.8135193 Z M41.5457541,12.6567616 L42.6971043,13.8081118 L42.6971043,13.040545 L41.5457541,11.8891949 L41.5457541,12.6567616 Z M41.5457541,17.5756756 L42.6971043,18.7270258 L42.6971043,13.8837874 L41.5457541,12.7324372 L41.5457541,17.5756756 Z M40.7889981,17.5756756 L40.5403497,17.5756756 L41.6916999,18.7270258 L41.9349429,18.7270258 L40.7889981,17.5756756 Z M42.2106183,18.7270258 L41.0592681,17.5756756 L40.8646737,17.5756756 L42.0160239,18.7270258 L42.2106183,18.7270258 Z M41.1349437,17.5756756 L42.2916993,18.7270258 L42.4322397,18.7270258 L41.2862949,17.5756756 L41.1349437,17.5756756 Z M41.3619705,17.5756756 L42.5133207,18.7270258 L42.6160233,18.7270258 L41.4700785,17.5756756 L41.3619705,17.5756756 Z M18.1457494,23.6783843 C18.6700732,24.1973027 18.9187216,24.7864912 18.9187216,25.5162202 C18.9187216,27.0297322 17.761966,28.1324338 16.1565622,28.1324338 L14.7835906,28.1324338 L14.7835906,30.878377 L13.5673756,30.878377 L12.221431,29.5324324 L12.221431,21.8567645 L14.9457526,21.8567645 C15.897103,21.8567645 16.6592644,22.1973047 17.0700748,22.6081151 L18.1457494,23.6783843 Z M13.4808892,24.9378424 L13.5944026,25.0513558 L13.5511594,25.094599 L13.4808892,25.0243288 L13.4808892,25.7756794 L14.5781854,25.7756794 L14.5781854,24.1108163 L13.4808892,23.0135201 L13.4808892,23.2459523 L14.4268342,24.2135189 L14.3889964,24.2513567 L13.4808892,23.3324387 L13.4808892,23.5918979 L14.2592668,24.3810862 L14.221429,24.418924 L13.4808892,23.6729789 L13.4808892,23.9270327 L14.0971048,24.5486536 L14.0538616,24.5864914 L13.4808892,24.0081137 L13.4808892,24.2621675 L13.9295374,24.716221 L13.8862942,24.7540588 L13.4808892,24.3432484 L13.4808892,24.5973022 L13.76197,24.8837884 L13.7187268,24.9216262 L13.4808892,24.6837886 L13.4808892,24.9378424 Z M14.7133204,24.0567623 L13.6754836,23.0135201 L13.5565648,23.0135201 L14.6052124,24.0621677 L14.653861,24.0567623 L14.7133204,24.0567623 Z M14.9565634,24.0567623 L13.9133212,23.0135201 L13.7511592,23.0135201 L14.7944014,24.0567623 L14.9565634,24.0567623 Z M15.2646712,24.0567623 L14.221429,23.0135201 L13.9889968,23.0135201 L15.032239,24.0567623 L15.2646712,24.0567623 Z M15.6214276,24.0567623 L14.5781854,23.0135201 L14.2971046,23.0135201 L15.3403468,24.0567623 L15.6214276,24.0567623 Z M14.9673742,23.0135201 L14.653861,23.0135201 L15.6971032,24.0567623 L16.0106164,24.0567623 L14.9673742,23.0135201 Z M16.3187242,24.0567623 L15.3079144,23.0459525 C15.2268334,23.0297363 15.1349416,23.0243309 15.0484552,23.0189255 L16.086292,24.0567623 L16.3187242,24.0567623 Z M16.4322376,23.9324381 L15.6322384,23.1324389 C15.5619682,23.1054119 15.4808872,23.0837903 15.4052116,23.0675741 L16.4052106,24.0675731 C16.4268322,24.0675731 16.4484538,24.0675731 16.4700754,24.0729785 C16.4592646,24.0243299 16.4484538,23.9810867 16.4322376,23.9324381 Z M16.383589,23.8081139 C16.2646702,23.5378439 16.0538596,23.3270333 15.7727788,23.1918983 L16.383589,23.8081139 Z M18.0376414,23.7864923 L17.5619662,23.3054117 C17.6916958,23.5973033 17.7781822,23.9594651 17.7781822,24.3216268 C17.7781822,24.3864916 17.7781822,24.4513564 17.7727768,24.5108158 L18.7673704,25.4135176 C18.7457488,24.770275 18.5025058,24.2621675 18.0376414,23.7864923 Z M14.9133202,25.7756794 C15.8484544,25.7756794 16.5025078,25.1973016 16.5025078,24.3756808 C16.5025078,24.3270322 16.5025078,24.2783836 16.4971024,24.2297351 C16.4052106,24.2135189 16.3079134,24.2081135 16.2160216,24.2081135 L14.7295366,24.2081135 L14.7295366,25.7756794 L14.9133202,25.7756794 Z M18.6160192,26.4027058 C18.7133164,26.1324358 18.7673704,25.8351388 18.7673704,25.5162202 L18.7673704,25.4891932 L17.7673714,24.5756806 C17.7403444,24.8837884 17.6646688,25.1702746 17.54575,25.4297338 L18.6160192,26.4027058 Z M17.518723,25.4783824 C17.4214258,25.6783822 17.302507,25.8567604 17.1565612,26.0189224 L18.2700736,27.0297322 C18.3998032,26.8567594 18.5133166,26.662165 18.5943976,26.4567598 L17.518723,25.4783824 Z M17.843047,27.445948 C17.9889928,27.3324346 18.1187224,27.2081104 18.2376412,27.06757 L17.1187234,26.0567602 C16.9943992,26.1918952 16.8592642,26.3054086 16.707913,26.4135166 L17.843047,27.445948 Z M16.248454,26.6675704 L17.3998042,27.716218 C17.54575,27.6459478 17.6754796,27.5702722 17.7998038,27.4783804 L16.6592644,26.445949 C16.5295348,26.52703 16.3943998,26.6027056 16.248454,26.6675704 Z M15.7944004,26.824327 L16.9565614,27.87838 C17.0916964,27.8405422 17.2268314,27.7918936 17.3511556,27.7378396 L16.1944,26.689192 C16.0646704,26.743246 15.9295354,26.7864892 15.7944004,26.824327 Z M15.356563,26.905408 L16.5241294,27.959461 C16.653859,27.9432448 16.7781832,27.9216232 16.897102,27.8945962 L15.734941,26.8351378 C15.6106168,26.8675702 15.4862926,26.8891918 15.356563,26.905408 Z M16.0971028,27.9810826 L16.1565622,27.9810826 C16.2538594,27.9810826 16.3511566,27.9756772 16.4430484,27.9702718 L15.2808874,26.9162188 C15.1727794,26.9270296 15.059266,26.932435 14.9457526,26.9378404 L16.0971028,27.9810826 Z M14.5673746,26.9378404 L15.7187248,27.9810826 L16.0106164,27.9810826 L14.8646716,26.9378404 L14.5673746,26.9378404 Z M14.6322394,30.7270258 L14.6322394,27.9810826 L14.6376448,27.9810826 L13.4862946,26.9378404 L13.4808892,26.9378404 L13.4808892,27.2135158 L14.4808882,28.121623 L14.437645,28.1594608 L13.4808892,27.2891914 L13.4808892,27.5756776 L14.2916992,28.310812 L14.248456,28.3486498 L13.4808892,27.6513532 L13.4808892,27.932434 L14.1025102,28.500001 L14.0646724,28.5378388 L13.4808892,28.0081096 L13.4808892,28.2945958 L13.9133212,28.68919 L13.8754834,28.7270278 L13.4808892,28.3702714 L13.4808892,28.6459468 L13.7295376,28.8729736 L13.6916998,28.9162168 L13.4808892,28.7270278 L13.4808892,29.5756756 L14.6322394,30.7270258 Z M13.5673756,26.9378404 L14.7133204,27.9810826 L14.8322392,27.9810826 L13.680889,26.9378404 L13.5673756,26.9378404 Z M13.7565646,26.9378404 L14.9079148,27.9810826 L15.0538606,27.9810826 L13.9025104,26.9378404 L13.7565646,26.9378404 Z M13.9889968,26.9378404 L15.1349416,27.9810826 L15.3187252,27.9810826 L14.1727804,26.9378404 L13.9889968,26.9378404 Z M14.2430506,26.9378404 L15.3998062,27.9810826 L15.6376438,27.9810826 L14.491699,26.9378404 L14.2430506,26.9378404 Z M12.4808902,29.5756756 L13.6322404,30.7270258 L13.870078,30.7270258 L12.7241332,29.5756756 L12.4808902,29.5756756 Z M12.9944032,29.5756756 L12.7998088,29.5756756 L13.951159,30.7270258 L14.1457534,30.7270258 L12.9944032,29.5756756 Z M13.0700788,29.5756756 L14.2268344,30.7270258 L14.3673748,30.7270258 L13.22143,29.5756756 L13.0700788,29.5756756 Z M13.2971056,29.5756756 L14.4484558,30.7270258 L14.5511584,30.7270258 L13.4052136,29.5756756 L13.2971056,29.5756756 Z M26.0700733,21.8513591 L27.3619638,23.1432497 L27.3619638,27.4135156 C27.3619638,29.5756756 26.0754787,30.9918904 24.1241293,30.9918904 C23.0916979,30.9918904 22.3511581,30.6999988 21.6808885,30.0297292 L20.5727815,28.932433 C19.9619713,28.3324336 19.6322419,27.4297318 19.6322419,26.2729762 L19.6322419,21.8513591 L20.8484569,21.8513591 L22.1944015,23.1973037 L22.1944015,27.5324344 C22.1944015,27.8675692 22.2322393,28.1918932 22.3187257,28.4837848 C22.4971039,28.527028 22.6916983,28.554055 22.8971035,28.554055 C24.1187239,28.554055 24.8538583,27.689191 24.8538583,26.229733 L24.8538583,21.8513591 L26.0700733,21.8513591 Z M22.0430503,23.2621685 L20.8917001,22.1108183 L20.8917001,22.1973047 L22.0430503,23.3486549 L22.0430503,23.2621685 Z M26.1133165,22.2027101 L27.2106126,23.3000063 L27.2106126,23.2081145 L26.1133165,22.1162237 L26.1133165,22.2027101 Z M22.0430503,23.5810871 L22.0430503,23.4297359 L20.8917001,22.2783857 L20.8917001,22.4297369 L22.0430503,23.5810871 Z M26.1133165,22.4351423 L27.2106126,23.5324385 L27.2106126,23.3810873 L26.1133165,22.2837911 L26.1133165,22.4351423 Z M22.0430503,23.9000057 L22.0430503,23.6567627 L20.8917001,22.5054125 L20.8917001,22.7486555 L22.0430503,23.9000057 Z M26.1133165,22.7540609 L27.2106126,23.8513571 L27.2106126,23.6081141 L26.1133165,22.5108179 L26.1133165,22.7540609 Z M22.0430503,24.3486538 L22.0430503,23.9810867 L20.8917001,22.8297365 L20.8917001,23.1973037 L22.0430503,24.3486538 Z M26.1133165,23.2027091 L27.2106126,24.3000052 L27.2106126,23.9324381 L26.1133165,22.8351419 L26.1133165,23.2027091 Z M22.0430503,24.959464 L22.0430503,24.4243294 L20.8917001,23.2729793 L20.8917001,23.8081139 L22.0430503,24.959464 Z M26.1133165,23.8135193 L27.2106126,24.9108154 L27.2106126,24.3756808 L26.1133165,23.2783847 L26.1133165,23.8135193 Z M22.0430503,25.8027064 L22.0430503,25.0351396 L20.8917001,23.8837895 L20.8917001,24.6513562 L22.0430503,25.8027064 Z M27.2106126,24.986491 L26.1133165,23.8891949 L26.1133165,24.6567616 L27.2106126,25.7540578 L27.2106126,24.986491 Z M20.8917001,24.7270318 L20.8917001,26.229733 C20.8917001,27.3540562 21.3565645,28.1378392 22.1511583,28.4297308 C22.0808881,28.14865 22.0430503,27.8459476 22.0430503,27.5324344 L22.0430503,25.878382 L20.8917001,24.7270318 Z M27.026829,28.7216224 C27.1457478,28.3270282 27.2106126,27.8891908 27.2106126,27.4135156 L27.2106126,25.8297334 L26.1133165,24.7324372 L26.1133165,26.2729762 C26.1133165,26.7756784 26.0538571,27.229732 25.9349383,27.6297316 L27.026829,28.7216224 Z M25.9133167,27.6837856 C25.8322357,27.9486502 25.7241277,28.1918932 25.5889927,28.4027038 L26.675478,29.4891892 C26.810613,29.2729732 26.9241264,29.0351356 27.0052074,28.7756764 L25.9133167,27.6837856 Z M26.2592622,30.0189184 C26.405208,29.8729726 26.5349376,29.716216 26.648451,29.5378378 L25.5619657,28.4513524 C25.4484523,28.6297306 25.3187227,28.7864872 25.1727769,28.932433 L26.2592622,30.0189184 Z M24.7187233,29.2783786 L25.8160195,30.3756748 C25.9619653,30.283783 26.0971003,30.175675 26.2214245,30.0567562 L25.1295337,28.9648654 C25.0052095,29.0837842 24.8700745,29.1864868 24.7187233,29.2783786 Z M24.2700751,29.5054054 L25.3727767,30.608107 C25.5079117,30.5486476 25.6430467,30.4837828 25.7673709,30.4027018 L24.6700747,29.3054056 C24.5457505,29.3810812 24.4106155,29.445946 24.2700751,29.5054054 Z M21.1998079,29.3594596 L21.7889965,29.9216212 C21.9025099,30.0297292 22.0160233,30.1270264 22.1295367,30.2135128 L21.3403483,29.4243244 L21.1998079,29.3594596 Z M21.6268345,29.5324324 C21.5727805,29.5108108 21.5187265,29.4945946 21.4646725,29.472973 L22.3727797,30.3810802 C22.4538607,30.4297288 22.5295363,30.4783774 22.6106173,30.5162152 L21.6268345,29.5324324 Z M23.8268323,29.6405404 L24.9349393,30.7486474 C25.0646689,30.716215 25.1889931,30.6783772 25.3133173,30.6297286 L24.2106157,29.527027 C24.0862915,29.5702702 23.9565619,29.608108 23.8268323,29.6405404 Z M21.7349425,29.5648648 L22.7565631,30.5864854 C22.8268333,30.6135124 22.8971035,30.6459448 22.9727791,30.6675664 L21.9241315,29.6189188 C21.8592667,29.6027026 21.7998073,29.5864864 21.7349425,29.5648648 Z M22.0322395,29.6459458 L23.0916979,30.7054042 C23.1673735,30.7270258 23.2430491,30.7486474 23.3241301,30.7648636 L22.2484555,29.689189 C22.1727799,29.6729728 22.1025097,29.662162 22.0322395,29.6459458 Z M23.4052111,29.7108106 L24.5133181,30.8189176 C24.6376423,30.8081068 24.7565611,30.7864852 24.8700745,30.7594582 L23.7619675,29.6513512 C23.6484541,29.6783782 23.5295353,29.6999998 23.4052111,29.7108106 Z M22.3349419,29.6999998 L23.4160219,30.7810798 C23.5025083,30.797296 23.5889947,30.8081068 23.6754811,30.8189176 L22.5889957,29.7324322 C22.5025093,29.7270268 22.4214283,29.716216 22.3349419,29.6999998 Z M23.0268331,29.743243 L24.1241293,30.8405392 C24.2322373,30.8405392 24.3403453,30.8351338 24.4430479,30.824323 L23.3403463,29.7216214 C23.2376437,29.7324322 23.1295357,29.7378376 23.0268331,29.743243 Z M22.6700767,29.7378376 L23.7565621,30.824323 C23.8538593,30.8351338 23.9457511,30.8405392 24.0484537,30.8405392 L22.9511575,29.743243 L22.8754819,29.743243 C22.8052117,29.743243 22.7403469,29.743243 22.6700767,29.7378376 Z M33.3619666,28.3756768 L34.7079112,29.7216214 L34.7079112,30.878377 L29.7835919,30.878377 L28.4376473,29.5324324 L28.4376473,21.8567645 L29.6538623,21.8567645 L30.9998068,23.2027091 L30.9998068,28.3756768 L33.3619666,28.3756768 Z M30.8484556,23.2675739 L29.6971055,22.1162237 L29.6971055,22.1973047 L30.8484556,23.3486549 L30.8484556,23.2675739 Z M30.8484556,23.5810871 L30.8484556,23.4297359 L29.6971055,22.2783857 L29.6971055,22.4297369 L30.8484556,23.5810871 Z M30.8484556,23.9000057 L30.8484556,23.6567627 L29.6971055,22.5054125 L29.6971055,22.7486555 L30.8484556,23.9000057 Z M30.8484556,24.3486538 L30.8484556,23.9810867 L29.6971055,22.8297365 L29.6971055,23.1973037 L30.8484556,24.3486538 Z M30.8484556,24.959464 L30.8484556,24.4243294 L29.6971055,23.2729793 L29.6971055,23.8081139 L30.8484556,24.959464 Z M30.8484556,25.8027064 L30.8484556,25.0351396 L29.6971055,23.8837895 L29.6971055,24.6513562 L30.8484556,25.8027064 Z M29.6971055,28.3756768 L30.8484556,28.3756768 L30.8484556,25.878382 L29.6971055,24.7270318 L29.6971055,28.3756768 Z M34.55656,30.7270258 L34.55656,29.7864862 L33.4052098,28.635136 L33.4052098,29.5756756 L34.55656,30.7270258 Z M28.6971065,29.5756756 L29.8484567,30.7270258 L30.3511588,30.7270258 L29.1944033,29.5756756 L28.6971065,29.5756756 Z M29.2700789,29.5756756 L30.4268344,30.7270258 L30.880888,30.7270258 L29.7241325,29.5756756 L29.2700789,29.5756756 Z M29.7998081,29.5756756 L30.9565636,30.7270258 L31.3619686,30.7270258 L30.205213,29.5756756 L29.7998081,29.5756756 Z M30.2808886,29.5756756 L31.4376442,30.7270258 L31.7944006,30.7270258 L30.6430504,29.5756756 L30.2808886,29.5756756 Z M30.718726,29.5756756 L31.8754816,30.7270258 L32.1944002,30.7270258 L31.04305,29.5756756 L30.718726,29.5756756 Z M31.1187256,29.5756756 L32.2700758,30.7270258 L32.556562,30.7270258 L31.3998064,29.5756756 L31.1187256,29.5756756 Z M31.475482,29.5756756 L32.6322376,30.7270258 L32.8862914,30.7270258 L31.7295358,29.5756756 L31.475482,29.5756756 Z M31.8052114,29.5756756 L32.961967,30.7270258 L33.1835884,30.7270258 L32.0268328,29.5756756 L31.8052114,29.5756756 Z M32.1025084,29.5756756 L33.259264,30.7270258 L33.4538584,30.7270258 L32.3025082,29.5756756 L32.1025084,29.5756756 Z M32.3781838,29.5756756 L33.529534,30.7270258 L33.7025068,30.7270258 L32.5457512,29.5756756 L32.3781838,29.5756756 Z M32.6214268,29.5756756 L33.7781824,30.7270258 L33.9241282,30.7270258 L32.772778,29.5756756 L32.6214268,29.5756756 Z M32.8484536,29.5756756 L33.9998038,30.7270258 L34.1295334,30.7270258 L32.9727778,29.5756756 L32.8484536,29.5756756 Z M33.0538588,29.5756756 L34.205209,30.7270258 L34.313317,30.7270258 L33.1619668,29.5756756 L33.0538588,29.5756756 Z M33.2376424,29.5756756 L34.3889926,30.7270258 L34.4808844,30.7270258 L33.3295342,29.5756756 L33.2376424,29.5756756 Z M40.5133174,27.1864888 C40.9295332,27.6027046 41.1079114,28.0621636 41.1079114,28.6945954 C41.1079114,30.0513508 40.0376422,30.9918904 38.4862924,30.9918904 C37.3619692,31.013512 36.5241322,30.6837826 35.9998084,30.283783 L34.67008,28.9540546 L34.67008,27.6783802 L34.7998096,27.6243262 C35.3835928,28.1702716 36.1944028,28.4783794 37.0376452,28.4783794 C37.7403472,28.4783794 38.3079142,28.2243256 38.5295356,27.8405422 C37.6862932,27.4297318 36.697105,27.202705 36.1403488,26.4945976 L35.3241334,25.4567608 C34.9349446,24.959464 34.7457556,24.5973022 34.7457556,24.0027083 C34.7457556,22.6729799 35.805214,21.7594673 37.3511584,21.7594673 C38.1349414,21.7432511 38.9295352,21.9540617 39.5025076,22.3270343 L40.8376414,23.6621681 L40.8376414,24.8729776 L40.7187226,24.932437 C40.1079124,24.4837888 39.4106158,24.2297351 38.7619678,24.2297351 C38.0160226,24.2297351 37.4592664,24.527032 37.3133206,24.9918964 C38.0700766,25.2621664 38.8808866,25.5324364 39.3943996,26.0567602 L40.5133174,27.1864888 Z M39.53494,22.5756827 L39.53494,23.5702763 L39.5295346,23.5702763 L40.6862902,24.7270318 L40.6862902,23.7270329 L39.53494,22.5756827 Z M37.5835906,22.9324391 C37.5403474,22.9270337 37.4971042,22.9270337 37.4592664,22.9270337 C37.3781854,22.9270337 37.2971044,22.9324391 37.2160234,22.9378445 L38.3835898,24.1054109 C38.4916978,24.0891947 38.6106166,24.0783839 38.7295354,24.0783839 L37.5835906,22.9324391 Z M39.1133188,24.1000055 L37.994401,22.9810877 C37.886293,22.9594661 37.7727796,22.9432499 37.6592662,22.9324391 L38.805211,24.0783839 C38.9079136,24.0783839 39.0106162,24.0891947 39.1133188,24.1000055 Z M38.318725,24.1162217 L37.1457532,22.9432499 C37.0052128,22.9648715 36.8754832,22.9918985 36.751159,23.0297363 L37.9349416,24.2135189 C38.0538604,24.1702757 38.18359,24.1378433 38.318725,24.1162217 Z M39.4754806,24.1702757 L38.3944006,23.0891957 C38.2971034,23.0567633 38.1944008,23.0243309 38.0916982,23.0027093 L39.2052106,24.1162217 C39.291697,24.1270325 39.3835888,24.1486541 39.4754806,24.1702757 Z M37.8808876,24.2351405 L36.697105,23.0513579 C36.5403484,23.1054119 36.4106188,23.1810875 36.3025108,23.2729793 L37.4971042,24.4675726 C37.6052122,24.3756808 37.7349418,24.3000052 37.8808876,24.2351405 Z M39.8214262,24.2783836 L38.7998056,23.2567631 C38.7079138,23.2135199 38.6106166,23.1702767 38.5133194,23.1324389 L39.5781832,24.1973027 C39.6592642,24.2189243 39.7403452,24.2459513 39.8214262,24.2783836 Z M37.1673748,24.9378424 C37.2214288,24.770275 37.318726,24.6243292 37.453861,24.500005 L36.2592676,23.3054117 C36.1079164,23.4459521 36.0106192,23.6189249 35.9835922,23.8081139 L37.0808884,24.90541 L37.1673748,24.9378424 Z M40.1457502,24.4135186 L39.237643,23.5054115 C39.1457512,23.4459521 39.0538594,23.3864927 38.9565622,23.3378441 L39.9457504,24.3270322 C40.0106152,24.3540592 40.0808854,24.3810862 40.1457502,24.4135186 Z M39.4322374,23.6243303 L40.3025068,24.4945996 C40.3565608,24.5216266 40.4160202,24.554059 40.4754796,24.5918968 L39.480886,23.5973033 L39.4322374,23.6243303 Z M35.9781868,23.9216273 C35.9781868,24.3756808 36.3944026,24.6297346 36.9565642,24.8567614 L35.9781868,23.8783841 L35.9781868,23.9216273 Z M36.3781864,26.5324354 C36.5727808,26.743246 36.8430508,26.9108134 37.1511586,27.0621646 L35.9079166,25.8189226 C35.8430518,25.7810848 35.778187,25.743247 35.7187276,25.7054092 C35.913322,25.9756792 36.129538,26.2621654 36.3781864,26.5324354 Z M36.4484566,26.0783818 C36.318727,26.0243278 36.1889974,25.9648684 36.0700786,25.905409 L37.2971044,27.1324348 C37.4160232,27.1864888 37.5403474,27.2405428 37.670077,27.2945968 L36.4484566,26.0783818 Z M36.5727808,26.1270304 L37.7998066,27.3486508 C37.8971038,27.391894 37.994401,27.4297318 38.0916982,27.472975 L36.8538616,26.2351384 C36.7619698,26.202706 36.670078,26.1648682 36.5727808,26.1270304 Z M36.9727804,26.2783816 L38.2268332,27.5324344 C38.3079142,27.5648668 38.3889952,27.6027046 38.4700762,27.6405424 L37.1889964,26.3540572 C37.1187262,26.3324356 37.0430506,26.3054086 36.9727804,26.2783816 Z M38.5998058,27.689191 C38.6052112,27.662164 38.616022,27.635137 38.6214274,27.60811 L37.480888,26.4621652 C37.426834,26.4405436 37.3673746,26.418922 37.3133206,26.4027058 L38.5998058,27.689191 Z M37.6106176,26.5108138 L38.6322382,27.5324344 C38.6376436,27.5108128 38.6376436,27.4837858 38.6376436,27.4621642 L38.6376436,27.4567588 L37.751158,26.5702732 L37.6106176,26.5108138 Z M38.6322382,27.3756778 L38.616022,27.2945968 L38.0106172,26.689192 C37.9727794,26.6675704 37.9295362,26.6513542 37.886293,26.6297326 L38.6322382,27.3756778 Z M40.4052094,27.2945968 L39.7943992,26.6837866 C39.8700748,26.8891918 39.913318,27.121624 39.913318,27.391894 C39.913318,27.527029 39.9025072,27.6567586 39.8808856,27.7864882 L40.9511548,28.8567574 C40.9565602,28.8027034 40.9565602,28.7486494 40.9565602,28.6945954 C40.9565602,28.094596 40.7943982,27.6837856 40.4052094,27.2945968 Z M38.5727788,27.1702726 C38.4971032,27.0243268 38.3619682,26.9000026 38.1889954,26.7918946 L38.5727788,27.1702726 Z M40.9457494,28.9270276 L39.8700748,27.851353 C39.8160208,28.1000014 39.724129,28.3324336 39.5943994,28.5378388 L40.7295334,29.6729728 C40.8430468,29.445946 40.9187224,29.1972976 40.9457494,28.9270276 Z M40.34575,30.175675 C40.4862904,30.04054 40.6052092,29.8891888 40.697101,29.7216214 L39.561967,28.5864874 C39.4592644,28.7486494 39.3349402,28.8891898 39.1889944,29.0189194 L40.34575,30.175675 Z M38.7403462,29.3216218 L39.913318,30.499999 C40.0592638,30.4135126 40.1889934,30.3216208 40.3079122,30.2135128 L39.1457512,29.0513518 C39.021427,29.1540544 38.886292,29.2459462 38.7403462,29.3216218 Z M35.2322416,29.3000002 L36.0971056,30.1648642 C36.1781866,30.2243236 36.2592676,30.283783 36.3511594,30.337837 L35.372782,29.364865 L35.2322416,29.3000002 Z M38.2862926,29.5162162 L39.4646698,30.6945934 C39.6052102,30.6459448 39.7403452,30.5918908 39.8646694,30.5216206 L38.6916976,29.3486488 C38.5673734,29.4135136 38.4322384,29.472973 38.2862926,29.5162162 Z M35.507917,29.418919 L36.5241322,30.4351342 C36.5835916,30.4621612 36.643051,30.4945936 36.7079158,30.5216206 L35.6592682,29.472973 L35.507917,29.418919 Z M35.7727816,29.5054054 L36.8376454,30.5756746 C36.9025102,30.5972962 36.9727804,30.6243232 37.0430506,30.6459448 L35.9511598,29.554054 L35.7727816,29.5054054 Z M37.8484552,29.6243242 L39.021427,30.797296 C39.156562,30.7756744 39.2862916,30.7486474 39.4052104,30.7108096 L38.2322386,29.5378378 C38.1079144,29.5702702 37.9835902,29.6027026 37.8484552,29.6243242 Z M36.0538624,29.581081 L37.1511586,30.6783772 C37.2268342,30.6999988 37.3025098,30.7216204 37.3835908,30.7378366 L36.264673,29.6189188 C36.1944028,29.608108 36.1241326,29.5918918 36.0538624,29.581081 Z M36.3565648,29.635135 L37.4754826,30.7540528 C37.561969,30.770269 37.64305,30.7864852 37.7295364,30.797296 L36.5998078,29.662162 C36.5133214,29.6567566 36.4376458,29.6459458 36.3565648,29.635135 Z M38.9511568,30.8081068 L37.7835904,29.635135 C37.670077,29.6567566 37.5511582,29.6675674 37.4322394,29.6783782 L38.5944004,30.8405392 C38.7187246,30.8351338 38.8376434,30.824323 38.9511568,30.8081068 Z M36.6862942,29.6729728 L37.8268336,30.8081068 C37.9241308,30.8189176 38.0160226,30.8297284 38.1133198,30.8351338 L36.9619696,29.6837836 C36.8700778,29.6837836 36.778186,29.6783782 36.6862942,29.6729728 Z M38.1889954,30.8351338 C38.2862926,30.8405392 38.3889952,30.8405392 38.4862924,30.8405392 L38.5133194,30.8405392 L37.3565638,29.6783782 C37.2971044,29.6837836 37.2430504,29.6837836 37.183591,29.6837836 L37.0376452,29.6837836 L38.1889954,30.8351338 Z M47.183588,28.4027038 L48.5295325,29.7486484 L48.5295325,30.878377 L43.3295378,30.878377 L41.9835932,29.5324324 L41.9835932,21.8567645 L47.0268314,21.8567645 L48.3727759,23.2027091 L48.3727759,24.2675728 L44.5403474,24.2675728 L44.534942,25.040545 L46.4106158,25.040545 L47.7565604,26.3864896 L47.7565604,27.472975 L44.534942,27.472975 L44.534942,28.4027038 L47.183588,28.4027038 Z M48.2214248,23.2675739 L47.0700746,22.1162237 L47.0700746,23.0189255 L48.2214248,24.1162217 L48.2214248,23.2675739 Z M44.4971042,24.1162217 L43.3511594,23.0189255 L43.2700784,23.0189255 L44.4160232,24.1162217 L44.4971042,24.1162217 Z M44.7133202,24.1162217 L43.56197,23.0189255 L43.4322404,23.0189255 L44.5781852,24.1162217 L44.7133202,24.1162217 Z M44.9835902,24.1162217 L43.83224,23.0189255 L43.643051,23.0189255 L44.7944012,24.1162217 L44.9835902,24.1162217 Z M45.3079142,24.1162217 L44.1619694,23.0189255 L43.913321,23.0189255 L45.0646712,24.1162217 L45.3079142,24.1162217 Z M45.7403462,24.1162217 L44.5835906,23.0189255 L44.2430504,23.0189255 L45.3889952,24.1162217 L45.7403462,24.1162217 Z M46.1727782,24.1162217 L45.0160226,23.0189255 L44.670077,23.0189255 L45.8214272,24.1162217 L46.1727782,24.1162217 Z M46.6214264,24.1162217 L45.4700762,23.0189255 L45.102509,23.0189255 L46.2538592,24.1162217 L46.6214264,24.1162217 Z M47.0538584,24.1162217 L45.913319,23.0189255 L45.5511572,23.0189255 L46.7025074,24.1162217 L47.0538584,24.1162217 Z M47.4322364,24.1162217 L46.2862916,23.0189255 L45.9889946,23.0189255 L47.1403448,24.1162217 L47.4322364,24.1162217 Z M47.7565604,24.1162217 L46.6106156,23.0189255 L46.3619672,23.0189255 L47.5187228,24.1162217 L47.7565604,24.1162217 Z M47.9727764,24.1162217 L46.832237,23.0189255 L46.6862912,23.0189255 L47.8430468,24.1162217 L47.9727764,24.1162217 Z M48.1349384,24.1162217 L46.994399,23.0189255 L46.9079126,23.0189255 L48.0592628,24.1162217 L48.1349384,24.1162217 Z M43.2322406,24.5973022 L43.4971052,24.851356 L43.453862,24.8891938 L43.2322406,24.6783832 L43.2322406,25.040545 L44.3835908,25.040545 L44.3835908,24.1594649 L43.2322406,23.0621687 L43.2322406,23.2891955 L44.2322396,24.2459513 L44.183591,24.2783836 L43.2322406,23.3702765 L43.2322406,23.6189249 L44.048456,24.3973024 L43.9998074,24.4351402 L43.2322406,23.6946005 L43.2322406,23.9432489 L43.8646724,24.5486536 L43.8160238,24.5864914 L43.2322406,24.0243299 L43.2322406,24.2729782 L43.6808888,24.7000048 L43.6376456,24.7378426 L43.2322406,24.3486538 L43.2322406,24.5973022 Z M46.453859,25.3000042 L46.453859,26.2243276 L46.4484536,26.2243276 L47.6052092,27.3216238 L47.6052092,26.4513544 L46.453859,25.3000042 Z M44.4214286,27.3216238 L44.5187258,27.3216238 L43.3673756,26.2243276 L43.2700784,26.2243276 L44.4214286,27.3216238 Z M43.4484566,26.2243276 L44.5998068,27.3216238 L44.7889958,27.3216238 L43.643051,26.2243276 L43.4484566,26.2243276 Z M43.724132,26.2243276 L44.8700768,27.3216238 L45.1673738,27.3216238 L44.0106182,26.2243276 L43.724132,26.2243276 Z M44.0971046,26.2243276 L45.2484548,27.3216238 L45.6538598,27.3216238 L44.507915,26.2243276 L44.0971046,26.2243276 Z M46.1727782,27.3216238 L45.0322388,26.2243276 L44.588996,26.2243276 L45.7349408,27.3216238 L46.1727782,27.3216238 Z M46.6916966,27.3216238 L45.5403464,26.2243276 L45.1079144,26.2243276 L46.2592646,27.3216238 L46.6916966,27.3216238 Z M47.0646692,27.3216238 L45.9241298,26.2243276 L45.6214274,26.2243276 L46.7727776,27.3216238 L47.0646692,27.3216238 Z M47.3349392,27.3216238 L46.1889944,26.2243276 L45.9998054,26.2243276 L47.1511556,27.3216238 L47.3349392,27.3216238 Z M46.26467,26.2243276 L47.4214256,27.3216238 L47.5187228,27.3216238 L46.372778,26.2243276 L46.26467,26.2243276 Z M43.2322406,28.1432446 L43.372781,28.2783796 L43.3295378,28.3216228 L43.2322406,28.229731 L43.2322406,28.4027038 L44.3835908,28.4027038 L44.3835908,27.3594616 L43.2322406,26.2621654 L43.2322406,26.500003 L44.2322396,27.4621642 L44.1944018,27.500002 L43.2322406,26.581084 L43.2322406,26.8351378 L44.0646722,27.6297316 L44.021429,27.6675694 L43.2322406,26.9108134 L43.2322406,27.1594618 L43.8916994,27.7918936 L43.8484562,27.8297314 L43.2322406,27.2405428 L43.2322406,27.4891912 L43.7187266,27.9540556 L43.6754834,27.9918934 L43.2322406,27.5702722 L43.2322406,27.8189206 L43.5457538,28.1162176 L43.5025106,28.1540554 L43.2322406,27.8945962 L43.2322406,28.1432446 Z M47.2268312,28.662163 L47.2268312,29.5756756 L48.3781813,30.7270258 L48.3781813,29.8135132 L47.2268312,28.662163 Z M42.7673762,29.5756756 L42.2430524,29.5756756 L43.3944026,30.7270258 L43.9187264,30.7270258 L42.7673762,29.5756756 Z M43.3133216,29.5756756 L42.8430518,29.5756756 L43.994402,30.7270258 L44.4700772,30.7270258 L43.3133216,29.5756756 Z M43.3889972,29.5756756 L44.5457528,30.7270258 L44.967374,30.7270258 L43.8106184,29.5756756 L43.3889972,29.5756756 Z M43.886294,29.5756756 L45.0430496,30.7270258 L45.4160222,30.7270258 L44.264672,29.5756756 L43.886294,29.5756756 Z M44.670077,29.5756756 L44.3403476,29.5756756 L45.4916978,30.7270258 L45.8268326,30.7270258 L44.670077,29.5756756 Z M46.1943998,30.7270258 L45.0430496,29.5756756 L44.7457526,29.5756756 L45.9025082,30.7270258 L46.1943998,30.7270258 Z M45.1187252,29.5756756 L46.2700754,30.7270258 L46.5295346,30.7270258 L45.3781844,29.5756756 L45.1187252,29.5756756 Z M45.45386,29.5756756 L46.6052102,30.7270258 L46.8376424,30.7270258 L45.6808868,29.5756756 L45.45386,29.5756756 Z M45.7565624,29.5756756 L46.913318,30.7270258 L47.1133178,30.7270258 L45.9565622,29.5756756 L45.7565624,29.5756756 Z M46.0322378,29.5756756 L47.1889934,30.7270258 L47.3619662,30.7270258 L46.2052106,29.5756756 L46.0322378,29.5756756 Z M46.2808862,29.5756756 L47.4376418,30.7270258 L47.588993,30.7270258 L46.4322374,29.5756756 L46.2808862,29.5756756 Z M46.507913,29.5756756 L47.6646686,30.7270258 L47.7943982,30.7270258 L46.6376426,29.5756756 L46.507913,29.5756756 Z M46.7133182,29.5756756 L47.8700738,30.7270258 L47.9781818,30.7270258 L46.8268316,29.5756756 L46.7133182,29.5756756 Z M46.9025072,29.5756756 L48.0538574,30.7270258 L48.1511546,30.7270258 L46.994399,29.5756756 L46.9025072,29.5756756 Z M47.0700746,29.5756756 L48.2268302,30.7270258 L48.3025057,30.7270258 L47.1457502,29.5756756 L47.0700746,29.5756756 Z" id="DEFIPULSE"></path>
                </g>
            </g>
        </g>
    </g>
</svg>